<?xml version="1.0" encoding="UTF-8"?>
<!DOCTYPE svg PUBLIC "-//W3C//DTD SVG 1.1//EN" "http://www.w3.org/Graphics/SVG/1.1/DTD/svg11.dtd">
<svg xmlns="http://www.w3.org/2000/svg" version="1.1" width="96px" height="96px" style="shape-rendering:geometricPrecision; text-rendering:geometricPrecision; image-rendering:optimizeQuality; fill-rule:evenodd; clip-rule:evenodd" xmlns:xlink="http://www.w3.org/1999/xlink">
<g><path style="opacity:0.97" fill="#729a69" d="M 95.5,13.5 C 95.5,17.5 95.5,21.5 95.5,25.5C 94.3104,27.3545 92.9771,29.1879 91.5,31C 93.1498,34.1394 94.4831,37.3061 95.5,40.5C 95.5,46.1667 95.5,51.8333 95.5,57.5C 87.7604,80.0794 71.7604,92.0794 47.5,93.5C 23.2396,92.0794 7.23955,80.0794 -0.5,57.5C -0.5,51.8333 -0.5,46.1667 -0.5,40.5C 0.516883,37.3061 1.85022,34.1394 3.5,31C 2.02294,29.1879 0.689603,27.3545 -0.5,25.5C -0.5,21.5 -0.5,17.5 -0.5,13.5C 4.91478,2.96917 13.2481,-0.197498 24.5,4C 26.5701,4.94758 28.0701,6.44758 29,8.5C 34.888,6.06811 41.0546,5.06811 47.5,5.5C 53.2741,5.35255 58.9408,6.01921 64.5,7.5C 68.9647,4.34104 73.9647,2.34104 79.5,1.5C 87.1359,2.63019 92.4693,6.63019 95.5,13.5 Z M 17.5,34.5 C 20.0495,34.5608 21.5495,35.8941 22,38.5C 22.6667,43.1667 22.6667,47.8333 22,52.5C 21.7351,54.6515 20.7351,56.3181 19,57.5C 18.228,57.3552 17.5613,57.0219 17,56.5C 13.6176,49.0427 13.7843,41.7093 17.5,34.5 Z M 74.5,34.5 C 75.8221,34.33 76.9887,34.6634 78,35.5C 80.7895,41.6973 81.1228,48.0306 79,54.5C 78.6532,56.1802 77.6532,57.1802 76,57.5C 73.1182,54.2915 71.9515,50.4582 72.5,46C 72.4325,42.014 73.0992,38.1807 74.5,34.5 Z M 42.5,55.5 C 53.7247,54.4004 62.8913,58.067 70,66.5C 71.1778,75.0167 67.6778,80.85 59.5,84C 48.5848,87.4411 38.2515,86.1078 28.5,80C 21.8811,72.4184 22.8811,65.7517 31.5,60C 35.1574,58.1776 38.8241,56.6776 42.5,55.5 Z"/></g>
<g><path style="opacity:0.863" fill="#729969" d="M 41.5,61.5 C 46.547,61.3375 51.547,61.6708 56.5,62.5C 56.762,63.9778 56.4287,65.3112 55.5,66.5C 50.2556,68.9875 44.9223,69.1541 39.5,67C 38.6198,65.6439 38.2865,64.1439 38.5,62.5C 39.791,62.7373 40.791,62.404 41.5,61.5 Z"/></g>
</svg>
